<?xml version="1.0" standalone="no"?>
<!DOCTYPE svg PUBLIC "-//W3C//DTD SVG 20010904//EN"
 "http://www.w3.org/TR/2001/REC-SVG-20010904/DTD/svg10.dtd">
<svg version="1.0" xmlns="http://www.w3.org/2000/svg"
 width="842.000000pt" height="842.000000pt" viewBox="0 0 842.000000 842.000000"
 preserveAspectRatio="xMidYMid meet">
<metadata>
Created by potrace 1.11, written by Peter Selinger 2001-2013
</metadata>
<g transform="translate(0.000000,842.000000) scale(0.100000,-0.100000)"
fill="#000000" stroke="none">
<path d="M4205 5565 c0 -69 3 -125 8 -125 4 0 7 56 7 125 0 69 -4 125 -8 125
-4 0 -7 -56 -7 -125z"/>
<path d="M4045 5528 c-8 -20 29 -108 45 -108 13 0 8 21 -21 84 -13 31 -19 37
-24 24z"/>
<path d="M3800 5525 c0 -12 167 -175 180 -175 7 0 -28 41 -77 90 -83 83 -103
99 -103 85z"/>
<path d="M4351 5478 c-28 -67 -11 -89 18 -23 22 51 26 75 12 75 -4 0 -18 -23
-30 -52z"/>
<path d="M4526 5446 c-47 -47 -86 -91 -86 -98 0 -7 41 29 92 79 51 51 89 95
86 98 -3 4 -45 -32 -92 -79z"/>
<path d="M4126 5329 c-128 -48 -184 -194 -123 -315 14 -28 33 -56 42 -64 36
-30 52 -94 59 -237 3 -66 21 -113 42 -113 8 0 16 -11 20 -25 5 -21 12 -25 45
-25 32 0 39 4 39 19 0 11 13 29 29 40 27 20 30 27 34 99 10 162 22 206 68 255
51 55 69 151 43 230 -40 120 -176 183 -298 136z"/>
<path d="M3800 5292 c0 -16 100 -56 111 -45 7 7 -6 17 -42 31 -56 24 -69 26
-69 14z"/>
<path d="M4570 5275 c-14 -8 -33 -14 -42 -15 -10 0 -18 -7 -18 -16 0 -11 6
-14 22 -8 44 14 87 34 93 44 9 15 -26 12 -55 -5z"/>
<path d="M1852 4162 l3 -747 2370 0 2370 0 3 747 2 747 -950 0 c-522 0 -951
-3 -951 -7 -10 -52 -10 -52 65 -53 39 0 455 0 924 -1 l852 0 0 -687 0 -686
-2307 1 c-1270 1 -2310 2 -2313 3 -3 0 -6 309 -7 685 l-1 684 916 0 c890 -1
916 0 922 18 4 10 5 24 3 31 -3 9 -236 12 -954 12 l-949 0 2 -747z"/>
<path d="M3325 4454 c-79 -25 -148 -83 -184 -155 -28 -56 -30 -68 -27 -142 5
-135 54 -215 165 -270 59 -29 74 -32 151 -31 71 0 94 5 142 28 108 52 172 158
172 286 -1 119 -70 223 -182 272 -62 27 -171 33 -237 12z m177 -151 c15 -7 39
-29 55 -49 22 -30 27 -46 27 -90 -2 -100 -78 -172 -172 -161 -75 8 -131 64
-139 140 -7 60 1 88 34 122 53 53 132 69 195 38z"/>
<path d="M2309 4423 c0 -16 0 -145 -1 -288 l0 -260 76 -3 76 -3 0 177 0 177
30 -39 c17 -22 36 -46 43 -54 7 -8 55 -70 107 -137 l95 -123 77 0 78 0 -1 290
-1 290 -77 0 -77 0 1 -170 c0 -93 -2 -170 -5 -170 -3 0 -63 77 -135 170 l-130
169 -77 0 -78 1 -1 -27z"/>
<path d="M3910 4446 c0 -3 54 -132 119 -288 l119 -283 62 0 62 0 25 60 c13 33
33 80 45 105 24 53 28 63 107 248 34 79 61 148 61 153 0 6 -34 9 -81 7 l-81
-3 -68 -170 -68 -169 -14 34 c-8 19 -39 97 -69 172 l-54 138 -82 0 c-46 0 -83
-2 -83 -4z"/>
<path d="M4700 4243 c2 -237 8 -268 68 -325 46 -42 101 -60 187 -61 83 0 135
17 185 61 59 52 67 93 68 335 l1 197 -77 0 -78 0 1 -157 c1 -210 -5 -250 -39
-280 -46 -39 -122 -26 -147 26 -8 17 -14 83 -15 201 -2 96 -3 183 -4 193 0 15
-10 17 -75 17 l-76 0 1 -207z"/>
<path d="M5481 4248 c-18 -112 -35 -214 -37 -228 -3 -14 -7 -36 -9 -50 -3 -14
-7 -42 -11 -62 l-5 -38 75 0 c53 0 76 4 78 13 1 13 1 12 12 82 4 28 10 63 12
78 2 15 6 47 10 70 4 23 6 51 6 61 -2 36 16 1 76 -149 l60 -150 33 0 33 0 65
158 c70 169 72 171 85 59 8 -74 18 -156 22 -172 1 -8 3 -23 3 -32 1 -16 12
-18 77 -18 l76 0 -5 53 c-3 28 -8 61 -10 72 -3 12 -8 48 -12 80 -4 33 -9 69
-11 80 -3 11 -7 36 -9 55 -3 19 -7 44 -10 55 -2 11 -7 40 -10 65 -3 25 -8 54
-10 65 -2 11 -4 28 -4 38 -1 15 -12 17 -79 17 l-78 0 -61 -152 c-34 -85 -64
-146 -67 -138 -3 8 -28 77 -57 153 l-51 137 -77 0 -76 0 -34 -202z"/>
</g>
</svg>
